<?xml version="1.0" encoding="utf-8"?><svg xmlns="http://www.w3.org/2000/svg" xmlns:xlink="http://www.w3.org/1999/xlink"><symbol class="aionicon" viewBox="0 0 512 512" id="home-sharp" xmlns="http://www.w3.org/2000/svg"><path d="M416 174.74V48h-80v58.45L256 32 0 272h64v208h144V320h96v160h144V272h64l-96-97.26z" fill="currentColor" stroke="currentColor"/></symbol><symbol stroke-miterlimit="10" style="fill-rule:nonzero;clip-rule:evenodd;stroke-linecap:round;stroke-linejoin:round" viewBox="0 0 782 1024" xml:space="preserve" id="logo" xmlns="http://www.w3.org/2000/svg"><clipPath id="ba"><path d="M0 0h782v1024H0z"/></clipPath><g clip-path="url(#ba)"><path d="M82.198 629.984V50h487.186l115.997 162.395-185.595 231.994 231.993 231.993v162.396L615.783 977.974H151.796V792.379h371.189v-69.598L406.989 606.784H244.593V444.389l185.595-208.794" fill="none" stroke="currentColor" stroke-linecap="butt" stroke-width="100"/><path d="M1 631.144c0-44.845 36.353-81.198 81.198-81.198 44.844 0 81.197 36.353 81.197 81.198 0 22.133-8.855 42.198-23.217 56.844-14.736 15.029-35.269 24.353-57.98 24.353C37.354 712.341 1 675.988 1 631.144ZM348.99 236.755c0-44.845 36.354-81.198 81.198-81.198 44.844 0 81.198 36.353 81.198 81.198 0 44.844-36.354 81.197-81.198 81.197-44.844 0-81.198-36.353-81.198-81.197Z" fill="currentColor"/></g></symbol></svg>